<svg xmlns="http://www.w3.org/2000/svg" viewBox="0 0 70.02 93.74"><defs><style>.cls-1{fill:#fff;}</style></defs><g id="Layer_2" data-name="Layer 2"><g id="Layer_1-2" data-name="Layer 1"><path class="cls-1" d="M52.61,38.14a14.32,14.32,0,0,0-.16-2.55A17.06,17.06,0,0,0,49.7,28.7l-.18-.27a21.39,21.39,0,0,0-4.72-4.95c.22.83.39,1.45.54,2.08.09.39.17.78.24,1.18a25,25,0,0,1,.33,5c0,1.12-.13,2.24-.26,3.36-.32,1.34-.65,2.68-1,4a41.53,41.53,0,0,1-2.77,6.39L37.4,52.8a39.49,39.49,0,0,0-4.23,7.07,17,17,0,0,0-2.08,10.41,18.53,18.53,0,0,1,1.35-3.69,27.77,27.77,0,0,1,3.66-5.21l5.81-5.12a31.68,31.68,0,0,0,6-5.89,17.47,17.47,0,0,0,3.58-6.06A12.86,12.86,0,0,0,52.61,38.14ZM31.6,67.9s0,0,0,0h0Z"/><path class="cls-1" d="M31.6,67.86v0s0,0,0,0Z"/><path class="cls-1" d="M70,56.05c-.13-.74-.08-1.49-.17-2.22a33.62,33.62,0,0,0-2.56-9.18,36.5,36.5,0,0,0-2-3.89,12.7,12.7,0,0,0,.63-4.95,14.21,14.21,0,0,0-.16-2.54A17.1,17.1,0,0,0,63,26.37l-.18-.26a21.39,21.39,0,0,0-4.72-4.95c.22.83.39,1.45.54,2.08.09.39.17.78.24,1.18a24.93,24.93,0,0,1,.33,5c0,1.12-.12,2.24-.26,3.36-.32,1.34-.65,2.68-1,4a41.53,41.53,0,0,1-2.77,6.39l-4.5,7.26a39.49,39.49,0,0,0-4.23,7.07A17,17,0,0,0,44.41,68a18.56,18.56,0,0,1,1.36-3.69,27.72,27.72,0,0,1,3.65-5.21l5.81-5.12a31.39,31.39,0,0,0,6-5.89,26.64,26.64,0,0,0,1.67-2.17,29.32,29.32,0,0,1,2,6.48,32.21,32.21,0,0,1,.15,12.32,30.34,30.34,0,0,1-8.68,15.79,29.2,29.2,0,0,1-18.18,8.6,30.23,30.23,0,0,1-11.77-1c-.5-.15-1-.31-1.5-.49a30.69,30.69,0,0,1-6-2.92c-.27-.17-.55-.32-.8-.51a2.73,2.73,0,0,0-2.88-.28c-2.87,1.2-5.77,2.33-8.76,3.52.21-.7.44-1.39.69-2.08,1.41-3.9,3.71-7.3,6-10.74l10.11-11A60.75,60.75,0,0,0,33.61,51a33.39,33.39,0,0,0,5.63-12.38,24.61,24.61,0,0,0,1.11-10.17c-.06-.63-.14-1.26-.25-1.9-.08-.92-.19-1.81-.35-2.69A32,32,0,0,0,32.57,9,40.89,40.89,0,0,0,22.11,0c.58,1.55,1.05,2.7,1.46,3.88a53.13,53.13,0,0,1,2.56,18.31c-.12.85-.23,1.69-.34,2.54h0c-.56.16-1.12.33-1.67.51A34.89,34.89,0,0,0,8.47,35.69,34.35,34.35,0,0,0,1.71,47.53,30.26,30.26,0,0,0,.05,56.28a46.08,46.08,0,0,0,.18,7.15A33.3,33.3,0,0,0,4.87,76.6,1.65,1.65,0,0,1,5,78.26C3.43,82.12,1.9,86,.34,89.85A4.3,4.3,0,0,0,0,91.72a2,2,0,0,0,2,2,4.07,4.07,0,0,0,1.79-.3c3.85-1.55,7.7-3.07,11.54-4.64a1.86,1.86,0,0,1,1.9.15,33.33,33.33,0,0,0,6,2.87A35.2,35.2,0,0,0,38.7,93.58a33.23,33.23,0,0,0,16.17-5.93,35,35,0,0,0,9.88-10.26A33.94,33.94,0,0,0,69.82,63.6c.1-.74.05-1.49.2-2.22v-.55a3.78,3.78,0,0,1,0-1.64V58.1a3.78,3.78,0,0,1,0-1.64ZM4.84,63.45a29.78,29.78,0,0,1,5-22.05A29.45,29.45,0,0,1,25.12,29.69c0,.14,0,.28-.05.42a80.88,80.88,0,0,1-4,12.83Q17.48,50.38,13.9,57.8A77.84,77.84,0,0,0,7.38,71.73,29.06,29.06,0,0,1,4.84,63.45Z"/><path class="cls-1" d="M31.6,67.86v0s0,0,0,0Z"/><path class="cls-1" d="M32.37,75.52a2.08,2.08,0,0,1,0-1.64Z"/><circle class="cls-1" cx="30.99" cy="74.71" r="3.17"/><circle class="cls-1" cx="40.41" cy="74.71" r="3.17"/><circle class="cls-1" cx="49.48" cy="74.71" r="3.17"/></g></g></svg>